<?xml version="1.0" encoding="utf-8"?>
<!-- Generator: Adobe Illustrator 18.0.0, SVG Export Plug-In . SVG Version: 6.00 Build 0)  -->
<!DOCTYPE svg PUBLIC "-//W3C//DTD SVG 1.1 Basic//EN" "http://www.w3.org/Graphics/SVG/1.1/DTD/svg11-basic.dtd">
<svg version="1.1" baseProfile="basic" id="Logo" xmlns="http://www.w3.org/2000/svg" xmlns:xlink="http://www.w3.org/1999/xlink"
	 x="0px" y="0px" viewBox="0 0 396.1 395.3" xml:space="preserve">
<style type="text/css">
	.st0{fill:#C0272D;}
	.st1{fill:#2980B9;}
</style>
<path class="st0" d="M740.9,259l-1.8-7.3l-1.7-7.4c-0.6-2.5-1-4.9-1.5-7.4c-0.5-2.5-0.8-5-1.2-7.5c-0.3-2.5-0.5-5.1-0.8-7.6
	c-0.2-2.5-0.3-5.1-0.4-7.6c-0.1-2.5,0-5.1-0.1-7.6c0-2.5,0.1-5.1,0.2-7.6c0.1-5.1,0.5-10.1,0.9-15.2c0.3-5,0.8-10.1,1.3-15.1
	c0.5-5,1-10,1.5-15c0.5-5,1.5-9.9,2.3-14.9l4.7-29.8l4.9-29.7l9.9-59.4l9.9,1.7l-1.3,6.7l-0.7,3.4l-0.8,3.3l-1.6,6.7l-1.8,6.6
	l-0.9,3.3l-1,3.3l-1.9,6.6l-2.1,6.5c-0.7,2.2-1.4,4.3-2.2,6.5l-2.2,6.4c-0.8,2.1-1.6,4.3-2.4,6.4c-1.6,4.3-3.3,8.5-4.9,12.7
	c-3.4,8.4-7,16.7-10.8,25c-3.8,8.2-7.7,16.4-11.8,24.5c-4.1,8.1-8.4,16.1-12.7,24c-4.4,7.9-8.9,15.8-13.5,23.5
	c-4.6,7.8-9.4,15.5-14.3,23.1c-2.4,3.8-4.9,7.6-7.5,11.4l-3.8,5.6l-1.9,2.8c-0.7,0.9-1.3,1.8-2.1,2.9l-4.1,5.4l-4.2,5.4l-4.2,5.3
	l-4.3,5.3c-11.4,14-23.4,27.7-35.9,40.8c-12.5,13.1-25.6,25.8-39.6,37.4c-7.1,5.8-14.4,11.4-22.2,16.4c-3.9,2.5-8,4.8-12.3,6.9
	c-4.3,2.1-8.9,3.8-14,4.8l-0.2,0l-0.2,0c-3.9,0.3-7.9,0.4-11.9-0.1c-4-0.5-8.1-1.5-12-3.4c-3.9-1.8-7.4-4.5-10.2-7.8
	c-2.8-3.3-4.8-7.1-6.2-11c-1.4-3.9-2-7.9-2.4-11.9c-0.3-4-0.3-7.9,0.1-11.7c0.5-3.9,1.4-7.6,2.4-11.3c1-3.7,2.3-7.3,3.8-10.7
	c3-7,6.7-13.6,11.4-19.6c2.4-3,5-5.8,8-8.3c3-2.4,6.3-4.6,10.1-5.9c1.9-0.7,3.9-1,5.9-1.1c2,0,4.1,0.2,6,0.9c3.9,1.2,7,3.8,9.4,6.7
	c2.4,2.9,4.3,6.1,5.9,9.4c1.6,3.3,2.8,6.8,3.9,10.2c-1.5-3.3-3-6.6-4.9-9.6c-1.9-3-4-5.9-6.5-8.3l-1-0.9c-0.3-0.3-0.7-0.5-1-0.8
	c-0.3-0.3-0.7-0.5-1-0.8l-1.1-0.7c-0.7-0.5-1.5-0.8-2.2-1.1c-0.4-0.2-0.8-0.3-1.2-0.4c-0.4-0.1-0.8-0.3-1.2-0.3
	c-1.6-0.4-3.2-0.4-4.8-0.2c-1.6,0.3-3.1,0.7-4.6,1.4c-3,1.3-5.6,3.5-8,5.8c-2.4,2.4-4.5,5.1-6.4,8c-3.8,5.8-6.7,12.2-8.8,18.7
	c-1.1,3.3-2,6.6-2.6,10c-0.7,3.4-1.1,6.8-1.3,10.1c-0.3,3.3-0.4,6.7-0.2,9.9c0.2,3.3,0.8,6.4,1.8,9.4c1,2.9,2.5,5.6,4.3,7.8
	c1.9,2.3,4.2,4,6.9,5.3c2.7,1.3,5.7,2.1,8.9,2.5c3.2,0.4,6.5,0.3,9.8,0.1l-0.4,0.1c3.8-0.7,7.7-2.2,11.5-4c3.8-1.8,7.6-4,11.2-6.3
	c7.3-4.7,14.4-10,21.2-15.6c13.6-11.3,26.5-23.7,38.8-36.6c12.3-12.9,24.1-26.4,35.4-40.2l4.2-5.2l4.2-5.3l4.1-5.3l4.1-5.4
	c0.6-0.7,1.2-1.7,1.9-2.6l1.9-2.7l3.8-5.5c2.5-3.7,4.9-7.4,7.4-11.2c4.8-7.5,9.5-15.1,14.1-22.8c4.6-7.7,9.1-15.4,13.4-23.2
	c4.3-7.8,8.5-15.7,12.6-23.7c4-8,8-16,11.7-24.1c3.8-8.1,7.3-16.3,10.6-24.5c1.6-4.1,3.3-8.3,4.8-12.5c0.8-2.1,1.6-4.2,2.3-6.3
	l2.2-6.3c0.8-2.1,1.4-4.2,2.1-6.3l2-6.3l1.9-6.4l0.9-3.2l0.9-3.2l1.7-6.4l1.5-6.5l0.8-3.2l0.7-3.3l1.3-6.5l9.9,1.7l-9.9,59.4
	l-4.9,29.7l-2.4,14.8c-0.8,4.9-1.6,9.9-2.3,14.8c-0.7,5-1.3,9.9-2.2,14.8l-2.7,14.8c-0.8,4.9-1.8,9.8-2.5,14.8
	c-0.8,4.9-1.6,9.9-2.1,14.8c-0.7,4.9-1.1,9.9-1.5,14.8c-0.1,2.5-0.3,4.9-0.3,7.4c0,2.5,0,5,0,7.4c0.1,2.5,0.2,5,0.4,7.5
	c0.2,2.5,0.4,5,0.7,7.5C739.6,249.1,740.2,254,740.9,259z"/>
<path class="st0" d="M696.3,130.3c0,0,3.2,2.2,9.4,5.9c3.1,1.8,7,4,11.7,6.3c4.7,2.3,10.2,4.7,16.5,6.8c6.3,2,13.5,3.8,21.1,3.8
	c3.8,0,7.7-0.5,11.3-1.9c3.6-1.3,6.9-3.5,9.7-6.5c1.4-1.5,2.5-3.1,3.7-5c1.1-1.9,2.1-3.9,3-5.9c1.6-4.1,2.8-8.4,2.7-12.8
	c-0.1-4.4-1.4-8.8-4.1-12.4c-2.7-3.6-6.6-6.4-11.2-8c-4.6-1.6-10-2-15.3-1.3c-0.7,0.1-1.5,0.2-2.3,0.3c-0.7,0.1-1.4,0.2-2.1,0.4
	c-0.7,0.1-1.4,0.3-2.1,0.4c-0.7,0.2-1.4,0.3-2.1,0.5c-2.8,0.7-5.6,1.5-8.4,2.5c-11.2,4-22,10.3-31,19c-9,8.7-16,19.8-19.3,32.4
	c-0.9,3.1-1.4,6.4-1.9,9.6l-0.1,1.3l-0.1,1.2c-0.1,0.8-0.1,1.6-0.1,2.4c0,1.6,0,3.2,0.1,4.7c0.3,3.1,1,6.1,2.2,8.7
	c1.2,2.7,3,5,5.2,6.9c4.5,3.9,10.8,6.2,17.6,7.4c6.8,1.2,13.9,1.5,21.2,1.4c14.5-0.3,29.4-2.3,44.4-4.5c15-2.2,30.2-4.9,45.6-6.9
	c7.8-1,15.5-1.8,23.6-2.1c7.9-0.3,15.9,0.1,23.7,0.7c15.7,1.2,31.2,3.5,46.5,6.2c15.3,2.7,30.4,6,45.3,9.6
	c29.8,7.3,58.7,16.1,86.2,26.1c27.4,10.1,53.4,21.3,77.2,33.8c11.9,6.2,23.3,12.8,34,19.5c5.3,3.4,10.5,6.8,15.5,10.4l1.8,1.3
	c0.6,0.4,1.2,0.9,1.8,1.2c1.1,0.8,2.4,1.5,3.6,2.3c2.4,1.5,4.8,2.8,7.3,3.9c4.9,2.3,9.9,4,14.9,4.8c5,0.8,9.8,0.7,14.4,0
	c4.6-0.7,9-2.3,12.9-4.5c3.9-2.2,7.4-5.1,10.3-8.3c5.9-6.5,9.8-14.2,11.5-21.6c0.8-3.7,1.1-7.4,0.5-10.6c-0.3-1.6-0.8-3.1-1.5-4.4
	c-0.7-1.3-1.7-2.3-2.9-3c-2.4-1.4-5.4-1.6-8.2-1.1c-2.8,0.5-5.4,1.4-7.7,2.4c-4.7,2.1-8.5,4.6-11.4,6.6c-3,2.1-5.2,3.8-6.6,5
	c-1.5,1.2-2.2,1.8-2.2,1.8s0.7-0.7,2-2c1.4-1.3,3.4-3.2,6.2-5.6c2.8-2.3,6.3-5.2,11-7.8c2.4-1.3,5-2.6,8.1-3.4
	c1.6-0.4,3.2-0.6,5-0.6c1.8,0,3.7,0.4,5.5,1.3c1.8,0.9,3.4,2.3,4.6,4c1.2,1.7,2,3.7,2.6,5.7c1.1,4.1,1.1,8.4,0.5,12.7
	c-0.6,4.3-1.9,8.7-3.7,13c-1.9,4.3-4.3,8.6-7.4,12.5c-3.1,4-7,7.7-11.5,10.8c-4.6,3.1-9.9,5.5-15.7,6.8c-5.8,1.4-12,1.2-18,0.1
	c-6-1.1-11.9-3-17.5-5.7c-2.8-1.3-5.5-2.8-8.2-4.4c-1.3-0.8-2.6-1.6-4-2.5c-0.7-0.4-1.3-0.9-1.9-1.3l-1.9-1.3
	c-4.9-3.4-9.9-6.8-15.2-10.1c-10.4-6.6-21.6-13-33.2-19.1c-23.4-12.2-49-23.4-76-33.3c-27.1-9.9-55.7-18.6-85.1-25.8
	c-14.7-3.6-29.7-6.8-44.7-9.5c-15.1-2.7-30.3-4.9-45.5-6.1c-7.6-0.6-15.2-0.9-22.7-0.7c-7.4,0.3-15,1.1-22.6,2
	c-15.1,2-30.3,4.6-45.4,6.9c-15.2,2.2-30.3,4.3-45.7,4.6c-7.7,0.1-15.4-0.1-23.2-1.6c-3.9-0.7-7.8-1.7-11.6-3.3
	c-3.8-1.5-7.5-3.6-10.8-6.4c-3.3-2.8-6-6.4-7.7-10.3c-1.8-3.9-2.7-8-3.1-12c-0.4-4-0.2-7.9,0.3-11.6c0.5-3.8,1.1-7.4,2.1-11.1
	c0.4-1.8,1.1-3.6,1.6-5.3c0.7-1.7,1.2-3.5,2-5.2c1.4-3.4,3.1-6.7,5-9.8c3.8-6.2,8.4-11.8,13.4-16.7c10.2-9.8,22.2-16.8,34.6-21.2
	c3.1-1.1,6.3-2.1,9.4-2.8c0.8-0.2,1.6-0.4,2.4-0.5c0.8-0.2,1.6-0.3,2.4-0.5c0.8-0.1,1.7-0.3,2.4-0.4c0.8-0.1,1.5-0.2,2.3-0.3
	c1.8-0.2,3.3-0.3,5-0.4c1.7,0,3.3,0,5,0.1c3.3,0.3,6.6,0.9,9.8,2c6.3,2.1,12.1,6.2,16.1,11.5c4,5.3,5.9,11.8,6.1,18
	c0.3,6.2-1.2,12.2-3.7,17.2c-1.2,2.5-2.7,4.9-4.2,7.1c-1.6,2.2-3.4,4.3-5.4,6.1c-4,3.7-8.8,6.2-13.6,7.5c-4.8,1.3-9.5,1.5-13.9,1.1
	c-4.4-0.3-8.4-1.3-12.1-2.4c-3.7-1.1-7.2-2.4-10.3-3.8c-12.7-5.6-21.4-11.9-27.3-16.2c-2.9-2.2-5.1-3.9-6.6-5.1
	C697,131,696.3,130.3,696.3,130.3z"/>
<g>
	<path class="st1" d="M173.1,126.9c1.1-8,2.2-16,3.3-24.1c0-0.2,0.1-0.4,0.1-0.6c-2.9,0.6-5.9,1.4-8.8,2.4
		c-8.2,16.8-17.1,33.3-26.6,49.3c5.5,2.7,11.8,5.5,19.1,8c2.6,0.9,5.4,1.7,8.3,2.4c0.5-4.4,1-8.9,1.6-13.3l1.5-12L173.1,126.9z"/>
	<path class="st1" d="M125.7,147c-3.5-2.6-6.2-4.6-7.9-6c-0.3-0.3-0.6-0.5-0.9-0.7c-5.9,8.2-10.5,17.5-13.2,27.5
		c-1,3.8-1.8,7.8-2.2,11.6l-0.2,1.6l-0.1,1.4c-0.1,1-0.1,2-0.1,2.9c-0.1,1.9,0,3.9,0.2,5.8c0.2,1.8,0.4,3.5,0.8,5.2
		c10.2-14.8,19.9-30,29.1-45.4C129.2,149.5,127.3,148.2,125.7,147z"/>
	<path class="st1" d="M40.9,276.2l0.1-0.1l0.1-0.2c4.2-4.8,8.4-9.9,12.5-14.9c4.1-5,8.2-10.1,12.2-15.3c8-10.3,15.8-20.7,23.4-31.2
		c2-2.7,3.9-5.4,5.8-8.2c-0.1-0.1-0.1-0.2-0.2-0.3c-2.1-4.5-3.2-9.4-3.6-14c-0.4-4.7-0.2-9.3,0.3-13.7c0.5-4.5,1.4-8.8,2.5-13.1
		c2.3-8.5,5.8-16.7,10.2-24c4.5-7.4,9.9-14,15.9-19.8c11.8-11.4,25.8-19.6,40.2-24.8c2.5-5.3,5-10.7,7.3-16.1c2.6-5.9,5-11.9,7.3-18
		c2.3-6,4.5-12.1,6.5-18.2c2-6.1,3.8-12.3,5.4-18.5c1.6-6.2,3-12.5,4.2-18.8l9.9,1.7l-3.9,23.9c-1.3,8-2.6,15.9-3.8,23.9
		c-1.2,8-2.5,15.9-3.6,23.9c-0.5,3.4-1,6.8-1.5,10.1c6.4-0.3,12.8,0.4,18.8,2.4c7.4,2.5,14.2,7.2,18.7,13.5c4.6,6.2,6.9,13.8,7.2,21
		c0.3,7.3-1.4,14.2-4.3,20.1c-1.4,3-3.1,5.8-4.9,8.3c-1.8,2.6-3.9,5.1-6.3,7.2c-4.6,4.3-10.2,7.3-15.9,8.9
		c-5.6,1.6-11.2,1.8-16.3,1.4c-2.7-0.2-5.2-0.6-7.7-1.1c-0.2,1.3-0.3,2.7-0.5,4c-0.9,8-1.8,16-2.5,24c-0.6,6.7-1.2,13.5-1.8,20.2
		c12.5-1,25.2-2.7,37.9-4.6c18-2.7,36.1-5.9,54.5-8.3c9.3-1.2,18.5-2.2,28.1-2.5c9.5-0.3,18.9,0.2,28.3,0.9
		c18.7,1.5,37.2,4.2,55.5,7.4c5,0.9,10,1.8,14.9,2.8c0.5-5.9,0.8-11.9,0.8-18c0-107.9-87.5-195.3-195.3-195.3S2.2,90.2,2.2,198.1
		c0,34.4,8.9,66.7,24.5,94.8C31.8,287.6,36.5,282,40.9,276.2z"/>
	<path class="st1" d="M165.8,187.2l1.3-12.1c0.2-1.8,0.4-3.7,0.6-5.5c-3.3-1.1-6.4-2.3-9.3-3.5c-7.3-3.2-13.6-6.6-18.9-9.8
		c-10.3,17.2-21.2,34.1-32.7,50.5c1,1.3,2.2,2.6,3.5,3.7c5.6,4.8,13.3,7.6,21.5,9.1c8.2,1.5,16.8,1.8,25.5,1.7
		c1.7,0,3.4-0.1,5.1-0.2c0.5-7.3,1.3-14.5,2.1-21.8L165.8,187.2z"/>
	<path class="st1" d="M117.1,140.1c1.8,1.2,4.9,3.2,9.3,5.9c1.7,1,3.6,2.1,5.8,3.3c7.6-12.8,14.8-25.8,21.6-39.1
		c-9.5,4.6-18.6,10.7-26.6,18.4C123.5,132.1,120.1,135.9,117.1,140.1z"/>
	<path class="st1" d="M375.3,223.2c-18-3.2-36.3-5.8-54.5-7.3c-9.1-0.7-18.2-1.1-27.2-0.8c-8.9,0.3-18,1.3-27.1,2.5
		c-18.1,2.4-36.2,5.6-54.4,8.2c-13.5,2-26.9,3.8-40.5,4.8c-0.6,5.9-1.3,11.9-1.8,17.8c-0.4,4-0.7,8-1.1,12c-0.4,4-0.7,8-1,12
		c-0.6,8-1.1,16.1-1.5,24.1c-0.4,8-0.7,16.1-0.9,24.1c-0.2,8.1-0.2,16.1,0,24.2c0.2,8.1,0.5,16.1,1.1,24.2
		c0.6,7.5,1.4,14.9,2.4,22.4c9.3,1.4,18.8,2.1,28.5,2.1c98.4,0,179.8-72.7,193.3-167.4C385.7,225.1,380.5,224.1,375.3,223.2z"/>
	<path class="st1" d="M164.9,369.2c-1.2-8-2-16.1-2.7-24.2c-0.7-8.1-1.2-16.2-1.5-24.3c-0.4-8.1-0.5-16.2-0.6-24.3
		c0-8.1,0-16.2,0.2-24.3c0.1-4.1,0.2-8.1,0.3-12.2c0.1-4.1,0.3-8.1,0.4-12.2c0.2-4.1,0.3-8.1,0.6-12.1c0.1-1.5,0.2-3,0.2-4.5
		c-1.4,0.1-2.8,0.1-4.3,0.1c-9.1,0.2-18.3-0.2-27.5-1.8c-4.6-0.8-9.2-2-13.6-3.8c-4.4-1.8-8.8-4.2-12.6-7.5c-1-0.9-2-1.8-2.9-2.8
		c-1.2,1.7-2.4,3.4-3.7,5.2c-7.7,10.7-15.6,21.2-23.6,31.5c-4,5.2-8.1,10.3-12.3,15.4c-4.1,5.1-8.3,10-12.6,15
		c-5.2,6.9-10.9,13.3-16.8,19.4c29.7,47.4,79.2,81,136.9,89.5C167.3,384,166,376.6,164.9,369.2z"/>
	<path class="st1" d="M173.2,92.7c1.6-0.4,3.1-0.7,4.7-1c0.6-4.3,1.2-8.6,1.9-12.9c0.1-0.6,0.2-1.3,0.3-1.9c-1,2.5-2.1,5-3.1,7.4
		C175.8,87.1,174.5,89.9,173.2,92.7z"/>
	<path class="st1" d="M199.3,164.5c4.4-1.6,8.6-4.2,11.9-7.8c1.7-1.8,3.2-3.8,4.6-6.1c1.4-2.3,2.6-4.7,3.7-7.2
		c2-5,3.4-10.3,3.4-15.7c-0.1-5.4-1.8-10.9-5.1-15.3c-3.3-4.5-8.2-8-13.9-9.9c-5.2-1.8-11.1-2.3-17-1.8c-0.2,1.2-0.4,2.5-0.5,3.7
		c-1.1,8-2.2,16-3.3,24l-1.6,12l-1.5,12c-0.6,4.6-1.1,9.3-1.7,14c2.4,0.3,4.8,0.5,7.2,0.5C190.1,166.7,194.8,166.1,199.3,164.5z"/>
</g>
</svg>
